<svg viewBox="0 0 1440 1271" version="1.1" xmlns="http://www.w3.org/2000/svg" xmlns:xlink="http://www.w3.org/1999/xlink">
<defs>
<path d="M374.151,667.074 L94.787,387.71 C85.959,378.885 81,366.913 81,354.43 C81,341.948 85.96,329.977 94.787,321.15 L374.15,41.788 C382.977,32.96 394.95,28 407.434,28 C419.918,28 431.891,32.96 440.718,41.788 L720.081,321.151 C738.459,339.531 738.459,369.33 720.081,387.711 L440.719,667.073 C431.892,675.901 419.919,680.86 407.435,680.86 C394.951,680.86 382.978,675.9 374.151,667.073 L374.151,667.074 Z" id="path-1"></path>
<filter x="-14.6%" y="-6.2%" width="121.6%" height="124.7%" filterUnits="objectBoundingBox" id="filter-2">
<feMorphology radius="0.5" operator="dilate" in="SourceAlpha" result="shadowSpreadOuter1"></feMorphology>
<feOffset dx="-25" dy="50" in="shadowSpreadOuter1" result="shadowOffsetOuter1"></feOffset>
<feGaussianBlur stdDeviation="15" in="shadowOffsetOuter1" result="shadowBlurOuter1"></feGaussianBlur>
<feComposite in="shadowBlurOuter1" in2="SourceAlpha" operator="out" result="shadowBlurOuter1"></feComposite>
<feColorMatrix values="0 0 0 0 0   0 0 0 0 0   0 0 0 0 0  0 0 0 0.4 0" type="matrix" in="shadowBlurOuter1"></feColorMatrix>
</filter>
<linearGradient x1="0%" y1="50%" x2="99.868%" y2="50%" id="linearGradient-3">
<stop stop-color="#134285" offset="0%"></stop>
<stop stop-color="#65318F" offset="100%"></stop>
</linearGradient>
<path d="M214.872,345.071 L67.83,198.045 C62.225,192.441 59.075,184.84 59.075,176.913 C59.075,168.987 62.225,161.385 67.83,155.781 L214.872,8.755 C220.478,3.149 228.081,-1.13686838e-13 236.008,-1.13686838e-13 C243.936,-1.13686838e-13 251.539,3.15 257.145,8.755 L404.169,155.781 C415.839,167.453 415.839,186.374 404.169,198.045 L257.145,345.071 C251.539,350.677 243.936,353.827 236.008,353.827 C228.081,353.827 220.478,350.677 214.872,345.071 L214.872,345.071 Z" id="path-4"></path>
<filter x="-8.5%" y="-5.7%" width="117.0%" height="122.6%" filterUnits="objectBoundingBox" id="filter-5">
<feOffset dx="0" dy="30" in="SourceAlpha" result="shadowOffsetOuter1"></feOffset>
<feGaussianBlur stdDeviation="5" in="shadowOffsetOuter1" result="shadowBlurOuter1"></feGaussianBlur>
<feColorMatrix values="0 0 0 0 0   0 0 0 0 0   0 0 0 0 0  0 0 0 0.15 0" type="matrix" in="shadowBlurOuter1"></feColorMatrix>
</filter>
<path d="M212.942,345.0645 L65.892,198.0475 C54.227,186.3705 54.227,167.4515 65.892,155.7745 L212.918,8.7495 C224.594,-2.9165 243.514,-2.9165 255.19,8.7495 L402.232,155.8075 C407.838,161.4125 410.988,169.0155 410.988,176.9435 C410.988,184.8715 407.838,192.4745 402.232,198.0795 L255.215,345.0975 C249.605,350.6995 242,353.8435 234.072,353.837509 C226.144,353.8305 218.543,350.6755 212.942,345.0645 L212.942,345.0645 Z" id="path-6"></path>
<filter x="-8.5%" y="-5.7%" width="117.0%" height="122.6%" filterUnits="objectBoundingBox" id="filter-7">
<feOffset dx="0" dy="30" in="SourceAlpha" result="shadowOffsetOuter1"></feOffset>
<feGaussianBlur stdDeviation="5" in="shadowOffsetOuter1" result="shadowBlurOuter1"></feGaussianBlur>
<feColorMatrix values="0 0 0 0 0   0 0 0 0 0   0 0 0 0 0  0 0 0 0.15 0" type="matrix" in="shadowBlurOuter1"></feColorMatrix>
</filter>
<path d="M204.181,345.06475 L57.165,198.04675 C51.559,192.44175 48.409,184.83875 48.409,176.91075 C48.409,168.98275 51.559,161.38075 57.165,155.77475 L204.182,8.74875 C215.858,-2.91625 234.778,-2.91625 246.454,8.74875 L393.48,155.77475 C405.145,167.45075 405.145,186.37075 393.48,198.04675 L246.454,345.06475 C240.849,350.67075 233.246,353.82075 225.318,353.82075 C217.39,353.82075 209.788,350.67075 204.182,345.06475 L204.181,345.06475 Z" id="path-8"></path>
<filter x="-8.5%" y="-5.7%" width="117.0%" height="122.6%" filterUnits="objectBoundingBox" id="filter-9">
<feOffset dx="0" dy="30" in="SourceAlpha" result="shadowOffsetOuter1"></feOffset>
<feGaussianBlur stdDeviation="5" in="shadowOffsetOuter1" result="shadowBlurOuter1"></feGaussianBlur>
<feColorMatrix values="0 0 0 0 0   0 0 0 0 0   0 0 0 0 0  0 0 0 0.15 0" type="matrix" in="shadowBlurOuter1"></feColorMatrix>
</filter>
<path d="M201.666,345.09675 L54.64,198.04675 C42.975,186.37075 42.975,167.45075 54.64,155.77475 L201.666,8.74875 C213.342,-2.91625 232.262,-2.91625 243.938,8.74875 L390.956,155.77475 C396.562,161.37975 399.712,168.98275 399.712,176.91075 C399.712,184.83875 396.562,192.44075 390.956,198.04675 L243.914,345.09675 C232.244,356.75475 213.336,356.75475 201.666,345.09675 L201.666,345.09675 Z" id="path-10"></path>
<filter x="-8.5%" y="-5.7%" width="117.0%" height="122.6%" filterUnits="objectBoundingBox" id="filter-11">
<feOffset dx="0" dy="30" in="SourceAlpha" result="shadowOffsetOuter1"></feOffset>
<feGaussianBlur stdDeviation="5" in="shadowOffsetOuter1" result="shadowBlurOuter1"></feGaussianBlur>
<feColorMatrix values="0 0 0 0 0   0 0 0 0 0   0 0 0 0 0  0 0 0 0.15 0" type="matrix" in="shadowBlurOuter1"></feColorMatrix>
</filter>
<path d="M236.749,345.071 L383.775,198.045 C395.444,186.374 395.444,167.453 383.775,155.781 L236.749,8.755 C231.144,3.149 223.541,5.68434189e-14 215.613,5.68434189e-14 C207.685,5.68434189e-14 200.082,3.15 194.477,8.755 L47.427,155.781 C41.821,161.385 38.671,168.987 38.671,176.913 C38.671,184.84 41.821,192.441 47.427,198.045 L194.477,345.071 C200.082,350.677 207.685,353.827 215.613,353.827 C223.541,353.827 231.143,350.677 236.749,345.071 L236.749,345.071 Z" id="path-12"></path>
<filter x="-8.5%" y="-5.7%" width="117.0%" height="122.6%" filterUnits="objectBoundingBox" id="filter-13">
<feOffset dx="0" dy="30" in="SourceAlpha" result="shadowOffsetOuter1"></feOffset>
<feGaussianBlur stdDeviation="5" in="shadowOffsetOuter1" result="shadowBlurOuter1"></feGaussianBlur>
<feColorMatrix values="0 0 0 0 0   0 0 0 0 0   0 0 0 0 0  0 0 0 0.15 0" type="matrix" in="shadowBlurOuter1"></feColorMatrix>
</filter>
<path d="M236.749,345.071 L383.766,198.046 C389.372,192.44 392.522,184.837 392.522,176.91 C392.522,168.982 389.372,161.379 383.766,155.773 L236.75,8.756 C231.144,3.15 223.541,5.68434189e-14 215.613,5.68434189e-14 C207.686,5.68434189e-14 200.083,3.15 194.477,8.756 L47.426,155.773 C35.761,167.45 35.761,186.369 47.426,198.046 L194.452,345.071 C200.06,350.681 207.668,353.833 215.6,353.833 C223.533,353.833 231.14,350.681 236.749,345.071 Z" id="path-14"></path>
<filter x="-8.5%" y="-5.7%" width="117.0%" height="122.6%" filterUnits="objectBoundingBox" id="filter-15">
<feOffset dx="0" dy="30" in="SourceAlpha" result="shadowOffsetOuter1"></feOffset>
<feGaussianBlur stdDeviation="5" in="shadowOffsetOuter1" result="shadowBlurOuter1"></feGaussianBlur>
<feColorMatrix values="0 0 0 0 0   0 0 0 0 0   0 0 0 0 0  0 0 0 0.15 0" type="matrix" in="shadowBlurOuter1"></feColorMatrix>
</filter>
<path d="M236.75,345.06775 L383.774,198.04975 C395.44,186.37375 395.44,167.45375 383.774,155.77775 L236.749,8.75175 C225.078,-2.91725 206.157,-2.91725 194.485,8.75175 L47.46,155.77775 C41.853,161.38275 38.704,168.98575 38.704,176.91375 C38.704,184.84175 41.854,192.44475 47.46,198.04975 L194.485,345.06775 C200.089,350.67375 207.691,353.82275 215.617,353.82275 C223.544,353.82275 231.146,350.67275 236.749,345.06775 L236.75,345.06775 Z" id="path-16"></path>
<filter x="-8.5%" y="-5.7%" width="117.0%" height="122.6%" filterUnits="objectBoundingBox" id="filter-17">
<feOffset dx="0" dy="30" in="SourceAlpha" result="shadowOffsetOuter1"></feOffset>
<feGaussianBlur stdDeviation="5" in="shadowOffsetOuter1" result="shadowBlurOuter1"></feGaussianBlur>
<feColorMatrix values="0 0 0 0 0   0 0 0 0 0   0 0 0 0 0  0 0 0 0.15 0" type="matrix" in="shadowBlurOuter1"></feColorMatrix>
</filter>
<path d="M198.029,345.06675 L345.071,198.01675 C350.678,192.41175 353.827,184.80875 353.827,176.88075 C353.827,168.95375 350.677,161.35075 345.071,155.74475 L198.03,8.75175 C186.358,-2.91725 167.437,-2.91725 155.765,8.75175 L8.756,155.77775 C3.15,161.38275 -5.68434189e-14,168.98575 -5.68434189e-14,176.91375 C-5.68434189e-14,184.84175 3.15,192.44375 8.756,198.04975 L155.782,345.06775 C167.45,356.72975 186.362,356.72975 198.03,345.06775 L198.029,345.06675 Z" id="path-18"></path>
<filter x="-8.5%" y="-5.7%" width="117.0%" height="122.6%" filterUnits="objectBoundingBox" id="filter-19">
<feOffset dx="0" dy="30" in="SourceAlpha" result="shadowOffsetOuter1"></feOffset>
<feGaussianBlur stdDeviation="5" in="shadowOffsetOuter1" result="shadowBlurOuter1"></feGaussianBlur>
<feColorMatrix values="0 0 0 0 0   0 0 0 0 0   0 0 0 0 0  0 0 0 0.15 0" type="matrix" in="shadowBlurOuter1"></feColorMatrix>
</filter>
<path d="M236.724,345.59 L383.766,198.54 C389.373,192.935 392.522,185.332 392.522,177.404 C392.522,169.477 389.372,161.874 383.766,156.268 L236.725,9.275 C225.053,-2.394 206.132,-2.394 194.46,9.275 L47.451,156.301 C41.845,161.906 38.695,169.509 38.695,177.437 C38.695,185.365 41.845,192.967 47.451,198.573 L194.477,345.591 C206.145,357.253 225.057,357.253 236.725,345.591 L236.724,345.59 Z" id="path-20"></path>
<filter x="-8.5%" y="-5.7%" width="117.0%" height="122.6%" filterUnits="objectBoundingBox" id="filter-21">
<feOffset dx="0" dy="30" in="SourceAlpha" result="shadowOffsetOuter1"></feOffset>
<feGaussianBlur stdDeviation="5" in="shadowOffsetOuter1" result="shadowBlurOuter1"></feGaussianBlur>
<feColorMatrix values="0 0 0 0 0   0 0 0 0 0   0 0 0 0 0  0 0 0 0.15 0" type="matrix" in="shadowBlurOuter1"></feColorMatrix>
</filter>
</defs>
<g id="Page-1" stroke="none" stroke-width="1" fill="none" fill-rule="evenodd">
<g id="infographic-base">
<g id="main-outer" transform="translate(313.583000, 259.445000)">
<g id="bg" fill-rule="nonzero">
<use fill="black" fill-opacity="1" filter="url(#filter-2)" xlink:href="#path-1"></use>
<use stroke="green" stroke-width="1" fill="black" xlink:href="#path-1"></use>
</g>
<path d="M383.49,656.921 L104.94,378.371 C98.59,372.023 95.022,363.411 95.022,354.431 C95.022,345.451 98.59,336.839 104.941,330.49 L383.49,51.94 C396.716,38.72 418.154,38.72 431.38,51.94 L709.92,330.514 C716.271,336.863 719.84,345.475 719.84,354.455 C719.84,363.435 716.271,372.047 709.92,378.396 L431.38,656.921 C418.154,670.141 396.716,670.141 383.49,656.921 Z" id="bg-inner" stroke="black" fill="#2563eb" fill-rule="nonzero"></path>
<g id="outer-lines" transform="translate(0.690060, 0.361000)" stroke="blue" stroke-dasharray="10" stroke-width="4">
<path d="M350.92394,684.616 L75.3799404,409.072 C60.7099404,394.404 52.4679404,374.509 52.4679404,353.764 C52.4679404,333.019 60.7099404,313.124 75.3799404,298.457 L350.92394,22.912 C365.59194,8.242 385.48694,0 406.23194,0 C426.97694,0 446.87194,8.242 461.53894,22.912 L737.09194,298.457 C767.63194,329.005 767.63194,378.524 737.09194,409.072 L461.53894,684.616 C446.87194,699.286 426.97694,707.528 406.23194,707.528 C385.48694,707.528 365.59194,699.286 350.92394,684.616 Z" id="ketupat-lines"></path>
<path d="M129.66094,244.973 L103.60694,219.359 C98.0609404,213.82 89.0769404,213.82 83.5299404,219.359 L41.6969404,261.183 C38.7169404,264.167 34.6739404,265.843 30.4569404,265.843 C26.2399404,265.843 22.1969404,264.167 19.2169404,261.183 L1.47694036,243.369 M343.41694,30.728 L317.31494,5.114 C311.75994,-0.412 302.78394,-0.412 297.22894,5.114 L255.40394,46.947 C249.19194,53.152 239.12794,53.152 232.91594,46.947 L214.18994,28.147 M130.88294,461.986 L103.60694,489.513 C98.0569404,495.043 89.0799404,495.043 83.5299404,489.513 L41.6969404,447.681 C38.7169404,444.697 34.6739404,443.021 30.4569404,443.021 C26.2399404,443.021 22.1969404,444.697 19.2169404,447.681 L0.278940357,468.092 M342.03294,678.909 L317.31494,703.749 C311.76094,709.28 302.78194,709.28 297.22894,703.749 L255.40394,661.925 C252.42394,658.941 248.37794,657.265 244.15994,657.265 C239.94194,657.265 235.89694,658.941 232.91594,661.925 L219.48994,677.598 M682.37894,244.973 L708.48194,219.359 C714.02794,213.82 723.01194,213.82 728.55894,219.359 L770.42494,261.216 C773.40494,264.2 777.44794,265.876 781.66494,265.876 C785.88094,265.876 789.92494,264.2 792.90494,261.216 L811.29694,242.75 M468.63894,30.728 L494.74194,5.114 C500.29694,-0.412 509.27194,-0.412 514.82794,5.114 L556.65194,46.947 C562.86394,53.152 572.92894,53.152 579.13994,46.947 L602.88194,23.107 M682.37894,463.891 L708.48194,489.513 C714.03194,495.043 723.00894,495.043 728.55894,489.513 L770.39194,447.681 C773.37194,444.697 777.41494,443.021 781.63194,443.021 C785.84894,443.021 789.89194,444.697 792.87194,447.681 L816.61394,471.52 M468.63894,678.136 L494.74194,703.75 C500.29494,709.28 509.27494,709.28 514.82794,703.75 L556.65194,661.925 C559.63294,658.941 563.67794,657.265 567.89594,657.265 C572.11394,657.265 576.15894,658.941 579.13994,661.925 L602.88194,685.765" id="lines"></path>
</g>
</g>
<g id="main-inner" transform="translate(492.000000, 393.000000)" fill-rule="nonzero">
<path d="M306.359871,431.070323 L307.068871,431.775323 L293.353871,445.562323 L296.189871,448.383323 L286.652871,451.591323 L289.808871,442.036323 L292.644871,444.857323 L306.359871,431.070323 L306.359871,431.070323 Z M175.852871,0.145323 L172.695871,9.700323 L169.859871,6.878323 L156.145871,20.666323 L155.435871,19.961323 L169.149871,6.172323 L166.314871,3.352323 L175.852871,0.145323 Z M432.305871,145.121323 L446.091871,158.834323 L448.913871,155.999323 L452.120871,165.536323 L442.566871,162.380323 L445.386871,159.543323 L431.599871,145.829323 L432.305871,145.121323 L432.305871,145.121323 Z M24.020871,263.006323 L34.076871,263.365323 L27.755871,271.195323 L26.094871,267.555323 L1.816871,278.629323 L21.118871,297.829323 L20.413871,298.539323 L0.599871,278.829323 L0.087871,278.320323 L0.744871,278.020323 L25.679871,266.645323 L24.019871,263.006323 L24.020871,263.006323 Z" id="inner-arrows" fill="white"></path>
<path d="M25.1998557,91.1583667 L25.1998557,85.6383667 L28.1518557,85.6383667 C31.3918557,85.6383667 33.8878557,83.1423667 33.8878557,79.9983667 C33.8878557,76.8543667 31.3918557,74.3583667 28.1518557,74.3583667 L21.8878557,74.3583667 L21.8878557,91.1583667 L25.1998557,91.1583667 L25.1998557,91.1583667 Z M28.1518557,82.5423667 L25.1998557,82.5423667 L25.1998557,77.4543667 L28.1518557,77.4543667 C29.5678557,77.4543667 30.5998557,78.5343667 30.5998557,79.9983667 C30.5998557,81.4383667 29.5678557,82.5423667 28.1518557,82.5423667 L28.1518557,82.5423667 Z M41.6098557,91.1583667 L41.6098557,85.3263667 L44.1298557,85.3263667 L47.5138557,91.1583667 L51.0898557,91.1583667 L47.3698557,84.8223667 C49.2898557,83.9343667 50.6098557,82.0383667 50.6098557,79.9263667 C50.6098557,76.8543667 48.1138557,74.3583667 45.0178557,74.3583667 L38.2978557,74.3583667 L38.2978557,91.1583667 L41.6098557,91.1583667 Z M45.0178557,82.4223667 L41.6098557,82.4223667 L41.6098557,77.4543667 L45.0178557,77.4543667 C46.2658557,77.4543667 47.2978557,78.5343667 47.2978557,79.9263667 C47.2978557,81.3183667 46.2658557,82.4223667 45.0178557,82.4223667 L45.0178557,82.4223667 Z M58.5958557,91.1583667 L58.5958557,74.3583667 L55.2838557,74.3583667 L55.2838557,91.1583667 L58.5958557,91.1583667 Z M71.9098557,91.4943667 C76.7578557,91.4943667 80.6458557,87.6543667 80.6458557,82.7583667 C80.6458557,77.8383667 76.7578557,74.0223667 71.9098557,74.0223667 C67.0618557,74.0223667 63.1978557,77.8383667 63.1978557,82.7583667 C63.1978557,87.6543667 67.0618557,91.4943667 71.9098557,91.4943667 Z M71.9098557,88.2543667 C68.8618557,88.2543667 66.4858557,85.9743667 66.4858557,82.7583667 C66.4858557,79.5183667 68.8618557,77.2383667 71.9098557,77.2383667 C74.9578557,77.2383667 77.3338557,79.5183667 77.3338557,82.7583667 C77.3338557,85.9743667 74.9578557,88.2543667 71.9098557,88.2543667 Z M88.5358557,91.1583667 L88.5358557,85.3263667 L91.0558557,85.3263667 L94.4398557,91.1583667 L98.0158557,91.1583667 L94.2958557,84.8223667 C96.2158557,83.9343667 97.5358557,82.0383667 97.5358557,79.9263667 C97.5358557,76.8543667 95.0398557,74.3583667 91.9438557,74.3583667 L85.2238557,74.3583667 L85.2238557,91.1583667 L88.5358557,91.1583667 Z M91.9438557,82.4223667 L88.5358557,82.4223667 L88.5358557,77.4543667 L91.9438557,77.4543667 C93.1918557,77.4543667 94.2238557,78.5343667 94.2238557,79.9263667 C94.2238557,81.3183667 93.1918557,82.4223667 91.9438557,82.4223667 L91.9438557,82.4223667 Z M105.521856,91.1583667 L105.521856,74.3583667 L102.209856,74.3583667 L102.209856,91.1583667 L105.521856,91.1583667 Z M117.467856,91.1583667 L117.467856,77.5263667 L122.003856,77.5263667 L122.003856,74.3583667 L109.643856,74.3583667 L109.643856,77.5263667 L114.155856,77.5263667 L114.155856,91.1583667 L117.467856,91.1583667 Z M129.413856,91.1583667 L129.413856,74.3583667 L126.101856,74.3583667 L126.101856,91.1583667 L129.413856,91.1583667 Z M145.439856,91.1583667 L145.439856,87.9903667 L138.311856,87.9903667 L145.295856,76.9743667 L145.295856,74.3583667 L134.255856,74.3583667 L134.255856,77.5263667 L141.071856,77.5263667 L134.087856,88.5183667 L134.087856,91.1583667 L145.439856,91.1583667 Z M160.265856,91.1583667 L160.265856,87.9903667 L153.185856,87.9903667 L153.185856,84.2223667 L159.545856,84.2223667 L159.545856,81.1023667 L153.185856,81.1023667 L153.185856,77.5263667 L160.145856,77.5263667 L160.145856,74.3583667 L149.873856,74.3583667 L149.873856,91.1583667 L160.265856,91.1583667 Z" id="priotirize" fill="white" transform="translate(91.076856, 82.758367) rotate(-45.000000) translate(-91.076856, -82.758367) "></path>
<path d="M295.315623,86.0507664 L295.315623,72.4187664 L299.851623,72.4187664 L299.851623,69.2507664 L287.491623,69.2507664 L287.491623,72.4187664 L292.003623,72.4187664 L292.003623,86.0507664 L295.315623,86.0507664 L295.315623,86.0507664 Z M307.261623,86.0507664 L307.261623,80.2187664 L309.781623,80.2187664 L313.165623,86.0507664 L316.741623,86.0507664 L313.021623,79.7147664 C314.941623,78.8267664 316.261623,76.9307664 316.261623,74.8187664 C316.261623,71.7467664 313.765623,69.2507664 310.669623,69.2507664 L303.949623,69.2507664 L303.949623,86.0507664 L307.261623,86.0507664 Z M310.669623,77.3147664 L307.261623,77.3147664 L307.261623,72.3467664 L310.669623,72.3467664 C311.917623,72.3467664 312.949623,73.4267664 312.949623,74.8187664 C312.949623,76.2107664 311.917623,77.3147664 310.669623,77.3147664 L310.669623,77.3147664 Z M323.023623,86.0507664 L324.031623,83.0267664 L330.727623,83.0267664 L331.735623,86.0507664 L335.335623,86.0507664 L329.431623,69.2507664 L325.327623,69.2507664 L319.447623,86.0507664 L323.023623,86.0507664 L323.023623,86.0507664 Z M329.695623,79.9307664 L325.087623,79.9307664 L327.391623,73.0667664 L329.695623,79.9307664 Z M342.529623,86.0507664 L342.529623,75.7787664 L349.729623,86.0507664 L352.249623,86.0507664 L352.249623,69.2507664 L348.937623,69.2507664 L348.937623,79.4987664 L341.737623,69.2507664 L339.217623,69.2507664 L339.217623,86.0507664 L342.529623,86.0507664 Z M363.091623,86.3867664 C366.667623,86.3867664 369.187623,84.4667664 369.187623,81.3227664 C369.187623,77.8907664 366.355623,77.0027664 363.691623,76.1627664 C361.147623,75.3947664 360.499623,74.8427664 360.499623,73.8107664 C360.499623,72.8507664 361.315623,72.1307664 362.707623,72.1307664 C364.411623,72.1307664 365.323623,73.0187664 365.923623,74.2907664 L368.707623,72.6827664 C367.579623,70.3307664 365.467623,68.9147664 362.707623,68.9147664 C359.827623,68.9147664 357.187623,70.7387664 357.187623,73.9067664 C357.187623,77.0987664 359.683623,78.1787664 362.251623,78.9227664 C364.747623,79.6427664 365.875623,80.1227664 365.875623,81.3707664 C365.875623,82.3067664 365.179623,83.1467664 363.187623,83.1467664 C361.099623,83.1467664 359.923623,82.1387664 359.323623,80.5787664 L356.491623,82.2347664 C357.403623,84.7307664 359.659623,86.3867664 363.091623,86.3867664 L363.091623,86.3867664 Z M376.789623,86.0507664 L376.789623,69.2507664 L373.477623,69.2507664 L373.477623,86.0507664 L376.789623,86.0507664 Z M388.735623,86.0507664 L388.735623,72.4187664 L393.271623,72.4187664 L393.271623,69.2507664 L380.911623,69.2507664 L380.911623,72.4187664 L385.423623,72.4187664 L385.423623,86.0507664 L388.735623,86.0507664 L388.735623,86.0507664 Z M400.681623,86.0507664 L400.681623,69.2507664 L397.369623,69.2507664 L397.369623,86.0507664 L400.681623,86.0507664 Z M413.995623,86.3867664 C418.843623,86.3867664 422.731623,82.5467664 422.731623,77.6507664 C422.731623,72.7307664 418.843623,68.9147664 413.995623,68.9147664 C409.147623,68.9147664 405.283623,72.7307664 405.283623,77.6507664 C405.283623,82.5467664 409.147623,86.3867664 413.995623,86.3867664 Z M413.995623,83.1467664 C410.947623,83.1467664 408.571623,80.8667664 408.571623,77.6507664 C408.571623,74.4107664 410.947623,72.1307664 413.995623,72.1307664 C417.043623,72.1307664 419.419623,74.4107664 419.419623,77.6507664 C419.419623,80.8667664 417.043623,83.1467664 413.995623,83.1467664 Z M430.621623,86.0507664 L430.621623,75.7787664 L437.821623,86.0507664 L440.341623,86.0507664 L440.341623,69.2507664 L437.029623,69.2507664 L437.029623,79.4987664 L429.829623,69.2507664 L427.309623,69.2507664 L427.309623,86.0507664 L430.621623,86.0507664 Z" id="transition" fill="white" transform="translate(363.916623, 77.650766) rotate(45.000000) translate(-363.916623, -77.650766) "></path>
  
<path d="M301.465932,374.050334 L301.465932,360.418334 L306.002932,360.418334 L306.002932,357.250334 L293.642932,357.250334 L293.642932,360.418334 L298.154932,360.418334 L298.154932,374.050334 L301.466932,374.050334 L301.465932,374.050334 Z M313.412932,374.050334 L313.412932,368.218334 L315.932932,368.218334 L319.316932,374.050334 L322.892932,374.050334 L319.172932,367.714334 C321.092932,366.826334 322.412932,364.930334 322.412932,362.818334 C322.412932,359.746334 319.916932,357.250334 316.820932,357.250334 L310.100932,357.250334 L310.100932,374.050334 L313.412932,374.050334 Z M316.820932,365.314334 L313.412932,365.314334 L313.412932,360.346334 L316.820932,360.346334 C318.068932,360.346334 319.100932,361.426334 319.100932,362.818334 C319.100932,364.210334 318.068932,365.314334 316.820932,365.314334 Z M329.174932,374.050334 L330.182932,371.026334 L336.878932,371.026334 L337.886932,374.050334 L341.486932,374.050334 L335.582932,357.250334 L331.478932,357.250334 L325.598932,374.050334 L329.174932,374.050334 L329.174932,374.050334 Z M335.846932,367.930334 L331.238932,367.930334 L333.542932,361.066334 L335.846932,367.930334 Z M348.680932,374.050334 L348.680932,363.778334 L355.880932,374.050334 L358.400932,374.050334 L358.400932,357.250334 L355.088932,357.250334 L355.088932,367.498334 L347.888932,357.250334 L345.368932,357.250334 L345.368932,374.050334 L348.680932,374.050334 Z M369.242932,374.386334 C372.818932,374.386334 375.338932,372.466334 375.338932,369.322334 C375.338932,365.890334 372.506932,365.002334 369.842932,364.162334 C367.298932,363.394334 366.650932,362.842334 366.650932,361.810334 C366.650932,360.850334 367.466932,360.130334 368.858932,360.130334 C370.562932,360.130334 371.474932,361.018334 372.074932,362.290334 L374.858932,360.682334 C373.730932,358.330334 371.618932,356.914334 368.858932,356.914334 C365.978932,356.914334 363.338932,358.738334 363.338932,361.906334 C363.338932,365.098334 365.834932,366.178334 368.402932,366.922334 C370.898932,367.642334 372.026932,368.122334 372.026932,369.370334 C372.026932,370.306334 371.330932,371.146334 369.338932,371.146334 C367.250932,371.146334 366.074932,370.138334 365.474932,368.578334 L362.642932,370.234334 C363.554932,372.730334 365.810932,374.386334 369.242932,374.386334 Z M382.940932,374.050334 L382.940932,367.570334 L389.468932,367.570334 L389.468932,364.402334 L382.940932,364.402334 L382.940932,360.418334 L389.660932,360.418334 L389.660932,357.250334 L379.628932,357.250334 L379.628932,374.050334 L382.940932,374.050334 L382.940932,374.050334 Z M402.278932,374.386334 C407.126932,374.386334 411.014932,370.546334 411.014932,365.650334 C411.014932,360.730334 407.126932,356.914334 402.278932,356.914334 C397.430932,356.914334 393.566932,360.730334 393.566932,365.650334 C393.566932,370.546334 397.430932,374.386334 402.278932,374.386334 Z M402.278932,371.146334 C399.230932,371.146334 396.854932,368.866334 396.854932,365.650334 C396.854932,362.410334 399.230932,360.130334 402.278932,360.130334 C405.326932,360.130334 407.702932,362.410334 407.702932,365.650334 C407.702932,368.866334 405.326932,371.146334 402.278932,371.146334 Z M418.904932,374.050334 L418.904932,368.218334 L421.424932,368.218334 L424.808932,374.050334 L428.384932,374.050334 L424.664932,367.714334 C426.584932,366.826334 427.904932,364.930334 427.904932,362.818334 C427.904932,359.746334 425.408932,357.250334 422.312932,357.250334 L415.592932,357.250334 L415.592932,374.050334 L418.904932,374.050334 Z M422.312932,365.314334 L418.904932,365.314334 L418.904932,360.346334 L422.312932,360.346334 C423.560932,360.346334 424.592932,361.426334 424.592932,362.818334 C424.592932,364.210334 423.560932,365.314334 422.312932,365.314334 Z M435.890932,374.050334 L435.890932,363.178334 L440.618932,370.954334 L441.002932,370.954334 L445.730932,363.154334 L445.730932,374.050334 L449.018932,374.050334 L449.018932,357.250334 L445.610932,357.250334 L440.810932,365.194334 L435.986932,357.250334 L432.578932,357.250334 L432.578932,374.050334 L435.890932,374.050334 Z" id="transform" fill="white" transform="translate(371.330932, 365.650334) rotate(-45.000000) translate(-371.330932, -365.650334) "></path>
  <!-- <text x="130" y="200" font-family="Arial" font-size="24" fill="black">Innovation</text> -->
<path d="M10.6078135,375.097575 L11.6158135,372.073575 L18.3118135,372.073575 L19.3198135,375.097575 L22.9198135,375.097575 L17.0158135,358.297575 L12.9118135,358.297575 L7.03181353,375.097575 L10.6078135,375.097575 L10.6078135,375.097575 Z M17.2798135,368.977575 L12.6718135,368.977575 L14.9758135,362.113575 L17.2798135,368.977575 L17.2798135,368.977575 Z M34.1698135,375.433575 C37.2658135,375.433575 39.9778135,373.873575 41.3938135,371.473575 L38.5378135,369.817575 C37.7458135,371.281575 36.0898135,372.193575 34.1698135,372.193575 C30.8818135,372.193575 28.7218135,369.913575 28.7218135,366.697575 C28.7218135,363.457575 30.8818135,361.177575 34.1698135,361.177575 C36.0898135,361.177575 37.7218135,362.089575 38.5378135,363.577575 L41.3938135,361.921575 C39.9538135,359.521575 37.2418135,357.961575 34.1698135,357.961575 C29.0818135,357.961575 25.4338135,361.777575 25.4338135,366.697575 C25.4338135,371.593575 29.0818135,375.433575 34.1698135,375.433575 Z M53.4838135,375.433575 C56.5798135,375.433575 59.2918135,373.873575 60.7078135,371.473575 L57.8518135,369.817575 C57.0598135,371.281575 55.4038135,372.193575 53.4838135,372.193575 C50.1958135,372.193575 48.0358135,369.913575 48.0358135,366.697575 C48.0358135,363.457575 50.1958135,361.177575 53.4838135,361.177575 C55.4038135,361.177575 57.0358135,362.089575 57.8518135,363.577575 L60.7078135,361.921575 C59.2678135,359.521575 56.5558135,357.961575 53.4838135,357.961575 C48.3958135,357.961575 44.7478135,361.777575 44.7478135,366.697575 C44.7478135,371.593575 48.3958135,375.433575 53.4838135,375.433575 Z M75.3898135,375.097575 L75.3898135,371.929575 L68.3098135,371.929575 L68.3098135,368.161575 L74.6698135,368.161575 L74.6698135,365.041575 L68.3098135,365.041575 L68.3098135,361.465575 L75.2698135,361.465575 L75.2698135,358.297575 L64.9978135,358.297575 L64.9978135,375.097575 L75.3898135,375.097575 L75.3898135,375.097575 Z M89.6878135,375.097575 L89.6878135,371.929575 L83.2798135,371.929575 L83.2798135,358.297575 L79.9678135,358.297575 L79.9678135,375.097575 L89.6878135,375.097575 Z M104.201814,375.097575 L104.201814,371.929575 L97.1218135,371.929575 L97.1218135,368.161575 L103.481814,368.161575 L103.481814,365.041575 L97.1218135,365.041575 L97.1218135,361.465575 L104.081814,361.465575 L104.081814,358.297575 L93.8098135,358.297575 L93.8098135,375.097575 L104.201814,375.097575 L104.201814,375.097575 Z M112.091814,375.097575 L112.091814,369.265575 L114.611814,369.265575 L117.995814,375.097575 L121.571814,375.097575 L117.851814,368.761575 C119.771814,367.873575 121.091814,365.977575 121.091814,363.865575 C121.091814,360.793575 118.595814,358.297575 115.499814,358.297575 L108.779814,358.297575 L108.779814,375.097575 L112.091814,375.097575 Z M115.499814,366.361575 L112.091814,366.361575 L112.091814,361.393575 L115.499814,361.393575 C116.747814,361.393575 117.779814,362.473575 117.779814,363.865575 C117.779814,365.257575 116.747814,366.361575 115.499814,366.361575 Z M127.853814,375.097575 L128.861814,372.073575 L135.557814,372.073575 L136.565814,375.097575 L140.165814,375.097575 L134.261814,358.297575 L130.157814,358.297575 L124.277814,375.097575 L127.853814,375.097575 L127.853814,375.097575 Z M134.525814,368.977575 L129.917814,368.977575 L132.221814,362.113575 L134.525814,368.977575 Z M149.399814,375.097575 L149.399814,361.465575 L153.935814,361.465575 L153.935814,358.297575 L141.575814,358.297575 L141.575814,361.465575 L146.087814,361.465575 L146.087814,375.097575 L149.399814,375.097575 L149.399814,375.097575 Z M168.425814,375.097575 L168.425814,371.929575 L161.345814,371.929575 L161.345814,368.161575 L167.705814,368.161575 L167.705814,365.041575 L161.345814,365.041575 L161.345814,361.465575 L168.305814,361.465575 L168.305814,358.297575 L158.033814,358.297575 L158.033814,375.097575 L168.425814,375.097575 L168.425814,375.097575 Z" id="accelerate" fill="white" transform="translate(87.728814, 366.697575) rotate(45.000000) translate(-87.728814, -366.697575) "></path>
<path d="" id="excellence" fill="url(#linearGradient-3)"></path>
  <text x="120" y="235" font-family="Arial" font-size="60" fill="white">Innovation</text> 
</g>
<g id="category" transform="translate(988.371000, 225.079000)" fill-rule="nonzero">
<g id="trigger" transform="translate(59.075000, -0.000000)" fill="#FFFFFF">
<path d="M155.797,345.071 L8.755,198.045 C3.15,192.441 0,184.84 0,176.913 C0,168.987 3.15,161.385 8.755,155.781 L155.797,8.755 C161.403,3.149 169.006,1.13686838e-13 176.933,1.13686838e-13 C184.861,1.13686838e-13 192.464,3.15 198.07,8.755 L345.094,155.781 C356.764,167.453 356.764,186.374 345.094,198.045 L198.07,345.071 C192.464,350.677 184.861,353.827 176.933,353.827 C169.006,353.827 161.403,350.677 155.797,345.071 L155.797,345.071 Z" id="INFRASTRUCTURE"></path>
</g>
<g id="details">
<circle id="dot" fill="black" cx="132.81" cy="282.826" r="8.142"></circle>
<circle id="dot" fill="black" cx="8.142" cy="280.465" r="8.142"></circle>
<path d="M305.051,295.137 L202.643,192.729 C198.737,188.826 196.543,183.53 196.543,178.009 C196.543,172.486 198.737,167.191 202.643,163.288 L305.051,60.88 C308.954,56.974 314.25,54.78 319.771,54.78 C325.294,54.78 330.589,56.974 334.492,60.88 L451.621,178.008 L334.492,295.137 C330.589,299.043 325.294,301.237 319.772,301.237 C314.25,301.237 308.954,299.043 305.052,295.137 L305.051,295.137 Z" id="color" fill="black"></path>
<path d="M305.051,295.137 L202.643,192.729 C198.737,188.826 196.543,183.53 196.543,178.009 C196.543,172.486 198.737,167.191 202.643,163.288 L305.051,60.88 C308.954,56.974 314.25,54.78 319.771,54.78 C325.294,54.78 330.589,56.974 334.492,60.88 L451.621,178.008 L334.492,295.137 C330.589,299.043 325.294,301.237 319.772,301.237 C314.25,301.237 308.954,299.043 305.052,295.137 L305.051,295.137 Z" id="gray" fill="black"></path>
<g id="shadow">
<use fill="black" fill-opacity="1" filter="url(#filter-5)" xlink:href="#path-4"></use>
<use fill="white" xlink:href="#path-4"></use>
</g>
<path d="M215.568267,336.606157 L75.9424353,196.987824 C70.6201275,191.666172 67.629,184.448136 67.629,176.920525 C67.629,169.393864 70.6201275,162.174878 75.9424353,156.853227 L215.568267,17.2348935 C220.891525,11.9113427 228.111062,8.921 235.638258,8.921 C243.166404,8.921 250.385941,11.9122924 255.709199,17.2348935 L395.317939,156.853227 C406.399354,167.937152 406.399354,185.904848 395.317939,196.987824 L255.709199,336.606157 C250.385941,341.929708 243.166404,344.921 235.638258,344.921 C228.111062,344.921 220.891525,341.929708 215.568267,336.606157 L215.568267,336.606157 Z" id="inner" stroke="black" stroke-width="0.949999988" fill="black"></path>
<path d="" id="text" fill="white"></path>
  <text x="140" y="200" font-family="Arial" font-size="45" fill="white">Excellence</text>
</g>
</g>
<g id="category" transform="translate(990.309000, 649.910500)" fill-rule="nonzero">
<g id="trigger" transform="translate(57.143250, 0.000000)" fill="#333399">
<path d="M155.79875,345.0645 L8.74875,198.0475 C-2.91625,186.3705 -2.91625,167.4515 8.74875,155.7745 L155.77475,8.7495 C167.45075,-2.9165 186.37075,-2.9165 198.04675,8.7495 L345.08875,155.8075 C350.69475,161.4125 353.84475,169.0155 353.84475,176.9435 C353.84475,184.8715 350.69475,192.4745 345.08875,198.0795 L198.07175,345.0975 C192.46175,350.6995 184.85675,353.8435 176.92875,353.837509 C169.00075,353.8305 161.39975,350.6755 155.79875,345.0645 L155.79875,345.0645 Z" id="CUSTOMER-EXPERIENCE"></path>
</g>
<g id="details" transform="translate(0.000000, 0.000000)">
<circle id="dot" fill="#333399" transform="translate(132.207950, 73.066851) rotate(-67.500000) translate(-132.207950, -73.066851) " cx="132.20795" cy="73.0668514" r="8.142"></circle>
<circle id="dot" fill="#333399" cx="8.142" cy="74.6335" r="8.142"></circle>
<path d="M303.113,295.1395 L200.705,192.7295 C192.579,184.5955 192.579,171.4155 200.705,163.2805 L303.113,60.8725 C311.248,52.7465 324.428,52.7465 332.563,60.8725 L449.691,178.0025 L332.562,295.1385 C324.428,303.2645 311.248,303.2645 303.113,295.1385 L303.113,295.1395 Z" id="color" fill="#333399"></path>
<path d="M303.113,295.1395 L200.705,192.7295 C192.579,184.5955 192.579,171.4155 200.705,163.2805 L303.113,60.8725 C311.248,52.7465 324.428,52.7465 332.563,60.8725 L449.691,178.0025 L332.562,295.1385 C324.428,303.2645 311.248,303.2645 303.113,295.1385 L303.113,295.1395 Z" id="gray" fill="#333399"></path>
<g id="shadow">
<use fill="#333399" fill-opacity="1" filter="url(#filter-7)" xlink:href="#path-6"></use>
<use fill="#333399" xlink:href="#path-6"></use>
</g>
<path d="M214.084911,336.669253 L74.4507917,197.063612 C63.3740694,185.975268 63.3740694,168.010005 74.4507917,156.921661 L214.062121,17.3084239 C225.149289,6.23052538 243.115134,6.23052538 254.202301,17.3084239 L393.828824,156.952997 C399.152108,162.275441 402.14325,169.495161 402.14325,177.023498 C402.14325,184.551835 399.152108,191.771556 393.828824,197.093999 L254.226041,336.700589 C248.898959,342.020183 241.677486,345.005689 234.149304,345 C226.621121,344.993345 219.403447,341.997393 214.084911,336.669253 L214.084911,336.669253 Z" id="inner" stroke="#CCCCCC" stroke-width="0.949999988" fill="black"></path>
<path d="" id="text" fill="white"></path>
  <text x="125" y="200" font-family="Arial" font-size="40" fill="white">Collaboration</text>
</g>
</g>
<g id="category" transform="translate(775.299000, 0.883250)" fill-rule="nonzero">
<g id="trigger" transform="translate(48.409000, -0.000000)" fill="black">
<path d="M155.772,345.06475 L8.756,198.04675 C3.15,192.44175 -1.13686838e-13,184.83875 -1.13686838e-13,176.91075 C-1.13686838e-13,168.98275 3.15,161.38075 8.756,155.77475 L155.773,8.74875 C167.449,-2.91625 186.369,-2.91625 198.045,8.74875 L345.071,155.77475 C356.736,167.45075 356.736,186.37075 345.071,198.04675 L198.045,345.06475 C192.44,350.67075 184.837,353.82075 176.909,353.82075 C168.981,353.82075 161.379,350.67075 155.773,345.06475 L155.772,345.06475 Z" id="DATA-DRIVEN"></path>
</g>
<g id="details" transform="translate(0.000000, 0.000000)">
<circle id="dot" fill="black" cx="132.802" cy="291.61275" r="8.142"></circle>
<circle id="dot" fill="black" cx="8.142" cy="289.78175" r="8.142"></circle>
<path d="M294.361,295.15475 L191.953,192.72275 C188.047,188.81875 185.853,183.52375 185.853,178.00275 C185.853,172.47975 188.047,167.18475 191.953,163.28175 L294.361,60.87275 C298.264,56.96775 303.559,54.77275 309.081,54.77275 C314.603,54.77275 319.899,56.96775 323.801,60.87275 L440.931,178.00275 L323.801,295.15475 C319.899,299.06075 314.603,301.25475 309.081,301.25475 C303.559,301.25475 298.264,299.06075 294.361,295.15475 L294.361,295.15475 Z" id="color" fill="black"></path>
<path d="M294.361,295.15475 L191.953,192.72275 C188.047,188.81875 185.853,183.52375 185.853,178.00275 C185.853,172.47975 188.047,167.18475 191.953,163.28175 L294.361,60.87275 C298.264,56.96775 303.559,54.77275 309.081,54.77275 C314.603,54.77275 319.899,56.96775 323.801,60.87275 L440.931,178.00275 L323.801,295.15475 C319.899,299.06075 314.603,301.25475 309.081,301.25475 C303.559,301.25475 298.264,299.06075 294.361,295.15475 L294.361,295.15475 Z" id="gray" fill="black"></path>
<g id="shadow">
<use fill="white" fill-opacity="1" filter="url(#filter-9)" xlink:href="#path-8"></use>
<use fill="#121212" xlink:href="#path-8"></use>
</g>
<path d="M205.627711,336.80176 L66.0160135,197.188558 C60.6923536,191.865862 57.701,184.6458 57.701,177.117106 C57.701,169.588413 60.6923536,162.369299 66.0160135,157.045655 L205.628661,17.4248552 C216.716612,6.34738161 234.683726,6.34738161 245.771677,17.4248552 L385.392871,157.045655 C396.470376,168.133574 396.470376,186.100638 385.392871,197.188558 L245.771677,336.80176 C240.448967,342.125405 233.228884,345.11675 225.700169,345.11675 C218.171454,345.11675 210.952321,342.125405 205.628661,336.80176 L205.627711,336.80176 Z" id="inner" stroke="white" stroke-width="0.949999988" fill="black"></path>
<path d="" id="text" fill="#000000"></path>
  <text x="130" y="200" font-family="Arial" font-size="39" fill="white">Sustainability</text>
</g>
</g>
<g id="category" transform="translate(775.649000, 877.166250)" fill-rule="nonzero">
<g id="trigger" transform="translate(45.891250, 0.000000)" fill="#FAFAFA">
<path d="M155.77475,345.09675 L8.74875,198.04675 C-2.91625,186.37075 -2.91625,167.45075 8.74875,155.77475 L155.77475,8.74875 C167.45075,-2.91625 186.37075,-2.91625 198.04675,8.74875 L345.06475,155.77475 C350.67075,161.37975 353.82075,168.98275 353.82075,176.91075 C353.82075,184.83875 350.67075,192.44075 345.06475,198.04675 L198.02275,345.09675 C186.35275,356.75475 167.44475,356.75475 155.77475,345.09675 L155.77475,345.09675 Z" id="COMMERCE"></path>
</g>
<g id="details">
<circle id="dot" fill="black" transform="translate(132.265972, 60.246899) rotate(-67.640000) translate(-132.265972, -60.246899) " cx="132.265972" cy="60.2468986" r="8.142"></circle>
<circle id="dot" fill="black" cx="8.142" cy="61.71175" r="8.142"></circle>
<path d="M291.837,295.16375 L189.429,192.75375 C181.304,184.62175 181.304,171.44475 189.429,163.31275 L291.837,60.90475 C295.742,56.99775 301.038,54.80375 306.562,54.80375 C312.085,54.80375 317.382,56.99775 321.286,60.90375 L438.415,178.03375 L321.262,295.16175 C313.133,303.28075 299.965,303.28075 291.837,295.16175 L291.837,295.16375 Z" id="color" fill="black"></path>
<path d="M291.837,295.16375 L189.429,192.75375 C181.304,184.62175 181.304,171.44475 189.429,163.31275 L291.837,60.90475 C295.742,56.99775 301.038,54.80375 306.562,54.80375 C312.085,54.80375 317.382,56.99775 321.286,60.90375 L438.415,178.03375 L321.262,295.16175 C313.133,303.28075 299.965,303.28075 291.837,295.16175 L291.837,295.16375 Z" id="gray" fill="black"></path>
<g id="shadow">
<use fill="black" fill-opacity="1" filter="url(#filter-11)" xlink:href="#path-10"></use>
<use fill="black" xlink:href="#path-10"></use>
</g>
<path d="M202.279905,336.531088 L62.6591052,196.895193 C51.5816316,185.807885 51.5816316,167.841811 62.6591052,156.754502 L202.279905,17.1413973 C213.367824,6.06453423 231.334888,6.06453423 242.422808,17.1413973 L382.03601,156.754502 C387.359655,162.076904 390.351,169.296569 390.351,176.824848 C390.351,184.353126 387.359655,191.571842 382.03601,196.895193 L242.400016,336.531088 C231.317795,347.601304 213.362126,347.601304 202.279905,336.531088 L202.279905,336.531088 Z" id="inner" stroke="white" stroke-width="0.949999988" fill="black"></path>
<path d="" id="text" fill="white"></path>
  <text x="143" y="200" font-family="Arial" font-size="45" fill="white">Diversity</text>
</g>
</g>
<g id="category" transform="translate(1.628000, 225.079000)" fill-rule="nonzero">
<g id="trigger" transform="translate(38.671000, 0.000000)" fill="#FAFAFA">
<path d="M198.078,345.071 L345.104,198.045 C356.773,186.374 356.773,167.453 345.104,155.781 L198.078,8.755 C192.473,3.149 184.87,5.68434189e-14 176.942,5.68434189e-14 C169.014,5.68434189e-14 161.411,3.15 155.806,8.755 L8.756,155.781 C3.15,161.385 2.84217094e-14,168.987 2.84217094e-14,176.913 C2.84217094e-14,184.84 3.15,192.441 8.756,198.045 L155.806,345.071 C161.411,350.677 169.014,353.827 176.942,353.827 C184.87,353.827 192.472,350.677 198.078,345.071 L198.078,345.071 Z" id="INNOVATION"></path>
</g>
<g id="details" transform="translate(-0.000000, 0.000000)">
<circle id="dot" fill="#CE36C1" cx="318.591" cy="281.833" r="8.142"></circle>
<circle id="dot" fill="#CE36C1" cx="440.035" cy="279.366" r="8.142"></circle>
<path d="M146.578,295.137 L248.986,192.729 C257.111,184.597 257.111,171.419 248.986,163.288 L146.578,60.88 C142.674,56.973 137.377,54.778 131.854,54.778 C126.33,54.778 121.034,56.973 117.129,60.88 L0,178.008 L117.129,295.137 C121.034,299.043 126.33,301.238 131.854,301.238 C137.377,301.238 142.674,299.043 146.578,295.137 Z" id="color" fill="#CE36C1"></path>
<path d="M146.578,295.137 L248.986,192.729 C257.111,184.597 257.111,171.419 248.986,163.288 L146.578,60.88 C142.674,56.973 137.377,54.778 131.854,54.778 C126.33,54.778 121.034,56.973 117.129,60.88 L0,178.008 L117.129,295.137 C121.034,299.043 126.33,301.238 131.854,301.238 C137.377,301.238 142.674,299.043 146.578,295.137 Z" id="gray" fill="black"></path>
<g id="shadow">
<use fill="green" fill-opacity="1" filter="url(#filter-13)" xlink:href="#path-12"></use>
<use fill="#333399" xlink:href="#path-12"></use>
</g>
<path d="M235.454878,336.606157 L375.061868,196.987824 C386.142044,185.904848 386.142044,167.937152 375.061868,156.853227 L235.454878,17.2348935 C230.13271,11.9113427 222.913361,8.921 215.385412,8.921 C207.857463,8.921 200.638115,11.9122924 195.315946,17.2348935 L55.6861676,156.853227 C50.3630493,162.174878 47.372,169.393864 47.372,176.920525 C47.372,184.448136 50.3630493,191.666172 55.6861676,196.987824 L195.315946,336.606157 C200.638115,341.929708 207.857463,344.921 215.385412,344.921 C222.913361,344.921 230.13176,341.929708 235.454878,336.606157 L235.454878,336.606157 Z" id="inner" stroke="black" stroke-width="0.95" fill="#333399"></path>
<path d="" id="text" fill=""></path>
  <text x="145" y="200" font-family="Arial" font-size="46" fill="white">Agility</text>
</g>
</g>
<g id="category" transform="translate(0.000000, 650.254000)" fill-rule="nonzero">
<g id="trigger" transform="translate(38.677250, 0.000000)" fill="#FAFAFA">
<path d="M198.07175,345.071 L345.08875,198.046 C350.69475,192.44 353.84475,184.837 353.84475,176.91 C353.84475,168.982 350.69475,161.379 345.08875,155.773 L198.07275,8.756 C192.46675,3.15 184.86375,2.84217094e-14 176.93575,2.84217094e-14 C169.00875,2.84217094e-14 161.40575,3.15 155.79975,8.756 L8.74875,155.773 C-2.91625,167.45 -2.91625,186.369 8.74875,198.046 L155.77475,345.071 C161.38275,350.681 168.99075,353.833 176.92275,353.833 C184.85575,353.833 192.46275,350.681 198.07175,345.071 Z" id="CAPABILITY-RESOURCE"></path>
</g>
<g id="details">
<circle id="dot" fill="#A836CE" transform="translate(319.415060, 73.109252) rotate(-45.000000) translate(-319.415060, -73.109252) " cx="319.41506" cy="73.109252" r="8.142"></circle>
<circle id="dot" fill="#A836CE" transform="translate(443.106711, 72.565023) rotate(-76.720000) translate(-443.106711, -72.565023) " cx="443.106711" cy="72.5650227" r="8.142"></circle>
<path d="M146.57,295.137 L248.978,192.729 C252.884,188.825 255.078,183.528 255.078,178.005 C255.078,172.481 252.884,167.185 248.978,163.28 L146.57,60.872 C138.438,52.747 125.26,52.747 117.129,60.872 L-1.42108547e-14,178.009 L117.129,295.136 C125.261,303.261 138.438,303.261 146.569,295.136 L146.57,295.137 Z" id="color" fill="#A836CE"></path>
<path d="M146.57,295.137 L248.978,192.729 C252.884,188.825 255.078,183.528 255.078,178.005 C255.078,172.481 252.884,167.185 248.978,163.28 L146.57,60.872 C138.438,52.747 125.26,52.747 117.129,60.872 L0,178.009 L117.129,295.136 C125.261,303.261 138.438,303.261 146.569,295.136 L146.57,295.137 Z" id="gray" fill="#9e1f63"></path>
<g id="shadow">
<use fill="black" fill-opacity="1" filter="url(#filter-15)" xlink:href="#path-14"></use>
<use fill="#333399" xlink:href="#path-14"></use>
</g>
<path d="M236.082791,336.4256 L375.685574,196.810584 C381.008858,191.487124 384,184.267311 384,176.739828 C384,169.211395 381.008858,161.991582 375.685574,156.668121 L236.08374,17.0607021 C230.760456,11.7372416 223.540883,8.746 216.0127,8.746 C208.485467,8.746 201.265894,11.7372416 195.94261,17.0607021 L56.3075417,156.668121 C45.2308194,167.756607 45.2308194,185.722099 56.3075417,196.810584 L195.918871,336.4256 C201.244054,341.752859 208.468375,344.746 216.000356,344.746 C223.533287,344.746 230.756658,341.752859 236.082791,336.4256 Z" id="inner" stroke="black" stroke-width="0.95" fill="#333399"></path>
  <text x="130" y="200" font-family="Arial" font-size="43" fill="white">Proactivity</text>
<path d="" id="" fill="#000000"></path>
</g>
</g>
<g id="category" transform="translate(225.390000, 0.880250)" fill-rule="nonzero">
<g id="trigger" transform="translate(38.704000, 0.000000)" fill="#FAFAFA">
<path d="M198.046,345.06775 L345.07,198.04975 C356.736,186.37375 356.736,167.45375 345.07,155.77775 L198.045,8.75175 C186.374,-2.91725 167.453,-2.91725 155.781,8.75175 L8.756,155.77775 C3.149,161.38275 -2.84217094e-14,168.98575 -2.84217094e-14,176.91375 C-2.84217094e-14,184.84175 3.15,192.44475 8.756,198.04975 L155.781,345.06775 C161.385,350.67375 168.987,353.82275 176.913,353.82275 C184.84,353.82275 192.442,350.67275 198.045,345.06775 L198.046,345.06775 Z" id="STRATEGY"></path>
</g>
<g id="details">
<circle id="dot" fill="#E27CE6" cx="307.421" cy="291.53475" r="8.142"></circle>
<circle id="dot" fill="#E27CE6" cx="432.3" cy="289.15775" r="8.142"></circle>
<path d="M146.579,295.15775 L248.987,192.74975 C252.893,188.84675 255.087,183.55075 255.087,178.02975 C255.087,172.50775 252.893,167.21175 248.987,163.30975 L146.579,60.87475 C142.675,56.96975 137.379,54.77475 131.859,54.77475 C126.336,54.77475 121.041,56.96975 117.138,60.87475 L-2.84217094e-14,178.00575 L117.137,295.15775 C121.04,299.06375 126.335,301.25775 131.857,301.25775 C137.379,301.25775 142.674,299.06375 146.577,295.15775 L146.579,295.15775 Z" id="color" fill="#E27CE6"></path>
<path d="M146.579,295.15775 L248.987,192.74975 C252.893,188.84675 255.087,183.55075 255.087,178.02975 C255.087,172.50775 252.893,167.21175 248.987,163.30975 L146.579,60.87475 C142.675,56.96975 137.379,54.77475 131.859,54.77475 C126.336,54.77475 121.041,56.96975 117.138,60.87475 L0,178.00575 L117.137,295.15775 C121.04,299.06375 126.335,301.25775 131.857,301.25775 C137.379,301.25775 142.674,299.06375 146.577,295.15775 L146.579,295.15775 Z" id="gray" fill="#333399"></path>
<g id="shadow">
<use fill="black" fill-opacity="1" filter="url(#filter-17)" xlink:href="#path-16"></use>
<use fill="#2563eb" xlink:href="#path-16"></use>
</g>
<path d="M236.07176,336.686007 L375.691153,197.073593 C386.769616,185.985737 386.769616,168.018774 375.691153,156.930917 L236.07081,17.3109071 C224.9876,6.22969764 207.019523,6.22969764 195.935363,17.3109071 L56.3150194,156.930917 C50.9904061,162.253582 48,169.473604 48,177.002255 C48,184.530906 50.9913558,191.750928 56.3150194,197.073593 L195.935363,336.686007 C201.257127,342.009621 208.476265,345 216.003086,345 C223.530857,345 230.749995,342.008672 236.07081,336.686007 L236.07176,336.686007 Z" id="inner" stroke="#D93922" stroke-width="0.95"></path>
<path d="" id="" fill="#000000"></path>
  <text x="143" y="200" font-family="Arial" font-size="50" fill="white">Quality</text>
</g>
</g>
<g id="category" transform="translate(225.936000, 873.753250)" fill-rule="nonzero">
<g id="trigger" transform="translate(38.695000, 1.000000)">
<g id="OPERATIONS">
<use fill="#D93922" fill-opacity="1" filter="url(#filter-19)" xlink:href="#path-18"></use>
<use fill="#2563eb" xlink:href="#path-18"></use>
</g>
</g>
<g id="details" transform="translate(0.000000, 0.476750)">
<circle id="dot" fill="#2563eb" cx="307.827" cy="63.142" r="8.142"></circle>
<circle id="dot" fill="#2563eb" transform="translate(430.392427, 63.931850) rotate(-67.130000) translate(-430.392427, -63.931850) " cx="430.392427" cy="63.9318497" r="8.142"></circle>
<path d="M146.57,295.657 L248.978,193.248 C252.884,189.345 255.078,184.05 255.078,178.528 C255.078,173.006 252.884,167.711 248.978,163.808 L146.57,61.398 C142.667,57.492 137.371,55.298 131.85,55.298 C126.328,55.298 121.032,57.492 117.129,61.398 L0,178.527 L117.129,295.656 C121.032,299.561 126.328,301.756 131.849,301.756 C137.371,301.756 142.667,299.561 146.569,295.656 L146.57,295.657 Z" id="color" fill="#2563eb"></path>
<path d="M146.57,295.657 L248.978,193.248 C252.884,189.345 255.078,184.05 255.078,178.528 C255.078,173.006 252.884,167.711 248.978,163.808 L146.57,61.398 C142.667,57.492 137.371,55.298 131.85,55.298 C126.328,55.298 121.032,57.492 117.129,61.398 L0,178.527 L117.129,295.656 C121.032,299.561 126.328,301.756 131.849,301.756 C137.371,301.756 142.667,299.561 146.569,295.656 L146.57,295.657 Z" id="green" fill="#333399"></path>
<g id="shadow">
<use fill="#2563eb" fill-opacity="1" filter="url(#filter-21)" xlink:href="#path-20"></use>
<use fill="#333399" xlink:href="#path-20"></use>
</g>
<path d="M235.11563,337.462929 L374.749157,197.816773 C380.073657,192.49398 383.064,185.273785 383.064,177.744953 C383.064,170.217071 380.072708,162.996875 374.749157,157.673133 L235.116579,18.0811067 C224.032654,6.99963108 206.064958,6.99963108 194.981033,18.0811067 L55.3788431,157.704471 C50.0552924,163.027264 47.064,170.24746 47.064,177.776291 C47.064,185.305123 50.0552924,192.524369 55.3788431,197.848112 L194.997176,337.463879 C206.077303,348.538707 224.036453,348.538707 235.116579,337.463879 L235.11563,337.462929 Z" id="inner" stroke="#2563eb" stroke-width="0.949999988"></path>
<path d=" " id="" fill="#2563eb"></path>
  <text x="100" y="200" font-family="Arial" font-size="40" fill="white">Accountability </text>
  
</g>
</g>
</g>
</g>
</svg>